PathFileType	4	(X/Y/Z)	Patient4_TMGait_0pt3_01_left_11.trc.trc
DataRate	CameraRate	NumFrames	NumMarkers	Units	OrigDataRate	OrigDataStartFrame	OrigNumFrames
50.541516245487	50.541516245487	5	33	mm	50.541516245487	71	       141
Frame#	Time	Sacral			L.Shoulder			Chest			R.Shoulder			Neck			R.ASIS			L.ASIS			R.Thigh.Superior			R.Thigh.Lateral			R.Thigh.Inferior			R.Patella			L.Thigh.Superior			L.Thigh.Lateral			L.Thigh.Inferior			L.Patella			L.Shank.Superior			L.Shank.Lateral			L.Shank.Inferior			R.Shank.Superior			R.Shank.Lateral			R.Shank.Inferior			R.Heel			R.Midfoot.Superior			R.Midfoot.Lateral			R.Toe			L.Heel			L.Midfoot.Lateral			L.Midfoot.Superior			L.Toe			L.Elbow			L.Wrist			R.Elbow			R.Wrist			
		X1	Y1	Z1	X2	Y2	Z2	X3	Y3	Z3	X4	Y4	Z4	X5	Y5	Z5	X6	Y6	Z6	X7	Y7	Z7	X8	Y8	Z8	X9	Y9	Z9	X10	Y10	Z10	X11	Y11	Z11	X12	Y12	Z12	X13	Y13	Z13	X14	Y14	Z14	X15	Y15	Z15	X16	Y16	Z16	X17	Y17	Z17	X18	Y18	Z18	X19	Y19	Z19	X20	Y20	Z20	X21	Y21	Z21	X22	Y22	Z22	X23	Y23	Z23	X24	Y24	Z24	X25	Y25	Z25	X26	Y26	Z26	X27	Y27	Z27	X28	Y28	Z28	X29	Y29	Z29	X30	Y30	Z30	X31	Y31	Z31	X32	Y32	Z32	X33	Y33	Z33	

71	21.635000000000	623.971716928961	1008.367134931536	371.687099255493	853.348716058842	1439.867149350811	236.857565459138	912.039222251134	1363.107912147402	415.419612475371	790.717016038241	1436.245760386867	565.961674216284	805.269829034451	1496.663541375428	391.099995889768	827.650969113347	950.816021056673	532.489130405247	863.212037176066	957.163883482288	260.456424565379	898.145717687381	769.558100605829	515.035321008056	843.566560993954	652.863177443761	585.268109643508	934.287306910675	607.067815021384	513.001985975666	960.154638395962	519.002732259636	539.275964014443	879.683105767150	733.040223247494	305.324053651619	784.191085733503	623.163619348944	236.655379605037	845.223339123363	540.629780420149	316.088548004827	834.338881582665	471.610607055630	326.735596084901	796.964402486951	403.050513128237	316.592189150557	695.788605895097	299.647792821869	265.364040823812	725.042604037580	185.864046254789	342.897056467967	927.570686256077	431.969047233702	549.749696469622	848.780387919330	331.132199157784	609.062107116433	907.747203435630	232.803893257337	567.488810296657	789.375194339468	57.524890048431	531.831176581341	953.057688274203	116.837057281374	591.965939011524	864.119429302872	48.281637304166	614.731156151275	1069.497154026677	69.416727385646	633.233891601926	578.838892955963	39.914300948109	384.445663602986	652.117016941373	35.447113145289	303.780525649234	737.675538519808	95.235309734142	330.422774199281	864.341203120646	38.924248326496	299.393181574647	952.179761483464	1143.196392155776	60.340098986737	1206.020148910580	1125.215054867277	101.935470637749	624.998295223302	1122.094343956961	640.172320955228	596.744311123249	862.257285517744	651.173331882069	
72	21.654785714286	624.415341810234	1006.831908281229	372.400374885185	854.266921441397	1438.899345892266	239.991645409252	911.003753753337	1362.540341042323	419.316153821545	787.780522983236	1435.837549396855	568.227709174719	804.312361638721	1495.733223826052	393.714643486696	826.628347647888	949.757345588304	535.462152176537	864.722444733550	956.559717669572	263.542266412540	896.460876913774	767.845908670423	519.506728221612	839.987431631651	650.790819887097	588.162529963276	931.921400850742	605.426288463484	517.339866278389	957.578892752283	518.989661462455	542.253799789957	878.023343866196	731.599162694639	307.329920756506	781.126962940044	623.247649593330	237.166582133346	840.259393231435	539.631337878881	316.420583716578	828.188987908613	471.029046900485	326.813265943994	791.224138727096	402.749445852674	316.596959341374	689.948758691447	299.456769461356	265.168131558663	719.018002545533	185.667053567745	342.815494049195	928.415266605799	431.452334379000	552.398238499792	853.498147002774	327.508314380350	612.035842312430	916.105443997520	231.304156943500	570.174791258121	803.544816858792	52.780189863630	534.984370307830	966.032918183966	115.371052075228	593.812779824228	879.174794114568	44.742472966185	617.159230898080	1084.190889601289	70.821956405936	634.178024380884	572.817002350751	39.750815039625	384.413781936582	646.063412380408	35.302048242465	303.713774367920	731.595685227515	95.145177678744	330.388156766875	858.314448526824	38.966897514317	299.460291454594	959.705759266886	1144.626274074523	64.699990014507	1213.341477543256	1137.668135546094	109.400087388059	617.053006363542	1124.713500865346	639.941304496914	586.681926546321	864.985021664281	650.877339777206	
73	21.674571428571	625.169382233221	1004.845221829355	373.571686965903	854.896826124082	1437.647550468806	243.442860699070	910.003339661860	1361.705755877037	423.394632909723	785.060193961048	1434.998190581805	570.876222838502	803.291292694342	1494.450861809090	396.733504511808	826.094415833706	948.238935972023	538.578001730940	866.484297837054	955.748343396379	266.735365124643	895.455992128607	765.710197909487	524.021507836099	836.931142385261	648.157241009102	590.799093409250	930.242124995640	603.374221504514	521.570697882828	955.310687047355	518.090663346053	545.034375993344	876.802668777197	730.015940351769	309.310440515423	778.434907882384	623.152301324803	237.873090326762	835.778234595013	538.505557515706	316.861933026732	822.566345662417	470.278450241257	327.030329966557	785.885467346136	402.279261885604	316.741908036921	684.359583611280	299.241807351942	265.068776433269	713.125458217089	185.382588203742	342.795311785678	928.777676826903	430.119187416809	554.793276687175	856.609450671328	324.027042354570	614.304778220678	921.859275273497	229.530932050743	572.248553910228	813.543503997617	49.261099996638	537.002050961161	975.009752403560	113.763949094026	595.094475718097	889.551416706816	42.074454154097	618.801171239357	1094.108335251243	71.146108734024	635.084092113991	566.783961491095	39.553025304796	384.395624346759	640.006464890506	35.139252988316	303.655765373456	725.511686177280	95.043834605368	330.372776578093	852.284166282202	39.015684934917	299.524144128333	966.482405607466	1145.640085965377	69.412067301219	1219.521038353363	1149.095443009699	116.849712070426	610.694021453680	1126.229531675145	640.237112792468	579.667711421732	866.443153468862	651.282330306689	
74	21.694357142857	626.250258077914	1002.539989749310	375.194810420838	855.306641188280	1436.205368605728	247.214357137616	909.076025365609	1360.689556220309	427.674361808969	782.563473234750	1433.805935956148	573.917904966124	802.235487020551	1492.902257469870	400.155405442550	826.072883428645	946.367296449335	541.830787025263	868.504955424071	954.786791817467	270.051275332424	895.209370741204	763.299920212375	528.431892792982	834.605578172922	645.151849230162	593.137635085683	929.361209165206	601.073896006414	525.551210917575	953.550677240185	516.458433920989	547.550716800586	876.007937983612	728.300565100834	311.289676163777	776.082102742327	622.906263578060	238.814918947023	831.743070504752	537.269820845257	317.469333484896	817.437210072542	469.374296096151	327.439443949522	780.905052857840	401.671104393703	317.062734745699	678.992179060754	299.028281465299	265.089265202043	707.344021152163	185.029201103728	342.847473124320	928.846881831781	428.071853786474	556.890863876966	858.309577169751	320.683176720090	615.917417800064	925.204582474464	227.415702342508	573.695949835586	819.483242865853	46.692453849626	537.978959962255	980.200796435195	111.964500354471	595.831551240213	895.447584192534	40.085045967663	619.737224076210	1099.590985741236	70.393408655784	635.920142909987	560.736025357468	39.323668624891	384.383634654278	633.945875678984	34.959954851353	303.605760758125	719.421486424405	94.935463681912	330.374336886184	846.250384752701	39.068086232245	299.582368460620	972.502812998896	1146.294715746461	74.411811440677	1224.638239180391	1159.455165365675	124.216218275823	605.869674764900	1126.679075371245	641.117034470106	575.590303530400	866.675280742283	652.461538665799	
75	21.714142857143	627.652958720592	1000.069651486724	377.249940581336	855.586339795519	1434.672151257329	251.300912290386	908.268796436719	1359.578581243845	432.168363812884	780.309883238797	1432.358840182862	577.347650548455	801.193487374465	1491.186579524408	403.963119230503	826.561828206061	944.269933031818	545.220312340881	870.771767447063	953.732771517851	273.508203134589	895.749466665842	760.772771050380	532.604266400312	833.181435706589	641.989799048245	595.189705766641	929.329101604171	598.685988309897	529.160147397968	952.447293429155	514.278627794503	549.760495140833	875.611021407037	726.476974769437	313.311578613288	774.048723809232	622.541657073960	240.032956403623	828.134836103476	535.948486032794	318.304718946147	812.788473579382	468.333574392580	328.092495593796	776.259147328566	400.958218892318	317.594608694516	673.832918379246	298.850464497727	265.256606533909	701.662667909467	184.632185392497	342.979978919245	928.812574493115	425.471137986746	558.670970475714	858.896452537265	317.504859227441	616.989307467956	926.474012561129	224.971953745558	574.553469217523	821.728404117563	44.846335103455	538.104016164043	982.032653986477	109.987483345385	596.074762499967	897.343457239453	38.620403680470	620.097215838776	1101.217629860269	68.684369526804	636.628437785929	554.673469110395	39.083682321482	384.367878718886	627.885104739955	34.774919463779	303.562398117541	713.330106729000	94.828178608557	330.388022966416	840.215733082810	39.116783293974	299.632049202733	977.783664055990	1146.655461881722	79.625524709252	1228.796425744531	1168.719898756654	131.435485582664	602.510175454313	1126.157138629976	642.623736525380	574.290932767560	865.807612901490	654.481075398637	
